<?xml version="1.0" encoding="utf-8"?>
<svg version="1.1" id="Layer_1" xmlns="http://www.w3.org/2000/svg" xmlns:xlink="http://www.w3.org/1999/xlink" x="0px" y="0px"
	 viewBox="0 0 130 130" style="enable-background:new 0 0 130 130;" xml:space="preserve">
<style type="text/css">
	.st0{fill:url(#SVGID_1_);}
	.st1{fill:#FBFBFB;fill-opacity:0.97;}
</style>
<linearGradient id="SVGID_1_" gradientUnits="userSpaceOnUse" x1="60.5" y1="2" x2="60.5" y2="223.5" gradientTransform="matrix(1 0 0 -1 4.5 132)">
	<stop  offset="7.551570e-02" style="stop-color:#563ACC"/>
	<stop  offset="0.5201" style="stop-color:#6364FF"/>
</linearGradient>
<rect class="st0" width="130" height="130"/>
<path class="st1" d="M102.5,65c0-21.3-9.7-32.2-15.8-36.7c-2-1.5-4.7-0.7-5.9,1.5c-2,3.8-5.3,11.2-5.3,17.8l0,0
	c-3.6-0.2-7.2-0.2-10.5-0.2c-3.4,0-6.9,0-10.5,0.2l0,0c0-6.6-3.3-14-5.3-17.8c-1.2-2.2-3.9-3-5.9-1.5C37.2,32.8,27.5,43.7,27.5,65
	l0.1,0c-0.2,5.6,0.1,11.5,0.4,17.7c0.8,19.8,28.1,19.8,37.1,19.8l0,0c9,0,36.3,0,37.1-19.8C102.3,76.5,102.6,70.6,102.5,65L102.5,65
	z M38.7,78.9c-2.8,0-5-2.3-5-5s2.3-5,5-5c2.8,0,5,2.3,5,5S41.5,78.9,38.7,78.9z M81.6,77.5c0,3-0.8,5.4-2.3,7.2
	c-1.6,1.8-3.7,2.7-6.3,2.7c-3,0-5.3-1.2-6.8-3.5l-1.5-2.4L63.3,84c-1.5,2.3-3.8,3.5-6.8,3.5c-2.6,0-4.7-0.9-6.3-2.7
	C48.7,83,48,80.6,48,77.5h0V62.7h5.9v14.4c0,3,1.3,4.6,3.8,4.6c2.8,0,4.2-1.8,4.2-5.4v-7.9h5.8v7.9c0,3.6,1.4,5.4,4.2,5.4
	c2.5,0,3.8-1.5,3.8-4.6V62.7h5.9V77.5z M91.3,78.9c-2.8,0-5-2.3-5-5s2.3-5,5-5s5,2.3,5,5S94.1,78.9,91.3,78.9z"/>
</svg>
