<svg width="65" height="65" viewBox="0 0 65 65" fill="none" xmlns="http://www.w3.org/2000/svg">
  <path d="M32.5,65c7.8,0,31.5,0,32.1-17.2c0.2-5.4,0.4-10.5,0.3-15.3l0,0c0-18.4-8.4-27.9-13.7-31.8
    c-1.7-1.3-4.1-0.6-5.1,1.3c-1.8,3.3-4.6,9.7-4.6,15.4l0,0c-3.1-0.1-6.2-0.2-9.1-0.2s-6,0-9.1,0.2l0,0c0-5.7-2.8-12.2-4.6-15.4
    c-1-1.9-3.4-2.6-5.1-1.3C8.4,4.6,0,14.1,0,32.5l0,0c-0.1,4.9,0.1,10,0.3,15.3C1,65,24.7,65,32.5,65L32.5,65z" fill="url(#paint0_linear_89_8)"/>
  <path class="st1" d="M17.7,43.4V30.5h5.1V43c0,2.6,1.1,4,3.3,4c2.4,0,3.7-1.6,3.7-4.7v-6.8h5v6.8c0,3.1,1.2,4.7,3.7,4.7
    c2.2,0,3.3-1.3,3.3-4V30.5h5.1v12.8c0,2.6-0.7,4.7-2,6.2c-1.4,1.5-3.2,2.3-5.4,2.3c-2.6,0-4.6-1-5.9-3l-1.3-2.1L31,48.9
    c-1.3,2-3.3,3-5.9,3c-2.2,0-4.1-0.8-5.4-2.3C18.4,48.1,17.7,46,17.7,43.4L17.7,43.4z M9.7,35.8c2.4,0,4.4,2,4.4,4.4
    c0,2.4-2,4.4-4.4,4.4s-4.4-2-4.4-4.4C5.4,37.7,7.3,35.8,9.7,35.8z M55.3,35.8c2.4,0,4.4,2,4.4,4.4c0,2.4-2,4.4-4.4,4.4
    c-2.4,0-4.4-2-4.4-4.4C50.9,37.7,52.9,35.8,55.3,35.8z" fill="white"/>
    <defs>
          <linearGradient id="paint0_linear_89_8" x1="30.5" y1="0" x2="30.5" y2="65"
              gradientUnits="userSpaceOnUse">
              <stop stop-color="#6364FF" />
              <stop offset="1" stop-color="#563ACC" />
          </linearGradient>
    </defs>
  </svg>
