<svg width="261" height="66" viewBox="0 0 261 66" fill="none" xmlns="http://www.w3.org/2000/svg" xmlns:xlink="http://www.w3.org/1999/xlink">
  <symbol id="logo-symbol-wordmark">
      <path
          d="M32.5001,65.0001c7.8044,0,31.4763,0,32.1457-17.1826.2096-5.3804.4476-10.4791.3099-15.346l.0443.0286c0-18.4272-8.4395-27.8753-13.7026-31.8446-1.7204-1.2975-4.064-.5712-5.0947,1.3211-1.7742,3.2572-4.5939,9.7251-4.5939,15.4264l.0004.0003c-3.0955-.1401-6.202-.1613-9.1092-.1613s-6.0136.0213-9.1092.1613l.0004-.0003c0-5.7013-2.8197-12.1692-4.5939-15.4264-1.0308-1.8923-3.3743-2.6186-5.0947-1.3211C8.4395,4.6249,0,14.0729,0,32.5002l.0443-.0286c-.1376,4.8668.1003,9.9655.3099,15.346.6696,17.1825,24.3415,17.1825,32.1459,17.1825h0Z"
          fill="url(#paint0_linear_89_11)" />
      <path
          d="M17.7329,43.3592v-12.8193h5.0801v12.4416c0,2.6193,1.0916,3.9552,3.3118,3.9552,2.4407,0,3.6632-1.5803,3.6632-4.7016v-6.8102h5.0496v6.8102c0,3.1214,1.2247,4.7016,3.6654,4.7016,2.2072,0,3.3097-1.3358,3.3097-3.9551v-12.4416h5.0779v12.8193c0,2.6193-.6688,4.7001-2.0063,6.2426-1.3797,1.5388-3.1895,2.329-5.4359,2.329-2.6001,0-4.5649-.9997-5.8748-2.9969l-1.264-2.1216-1.2662,2.1216c-1.3099,1.9972-3.2746,2.9969-5.8704,2.9969-2.2443,0-4.054-.7902-5.4382-2.329-1.3361-1.541-2.0034-3.6219-2.0019-6.2426h0Z"
          fill="currentColor" />
      <circle cx="9.7179" cy="40.157" r="4.3668" fill="currentColor" />
      <circle cx="55.2821" cy="40.157" r="4.3668" fill="currentColor" />
      <path
          d="M99.0296,39.3657v-12.7653h-5.0182v12.3836c0,2.6138-1.0871,3.9353-3.2711,3.9353-2.4071,0-3.6205-1.5761-3.6205-4.6793v-6.7841h-4.9793v6.7841c0,3.113-1.2036,4.6793-3.6205,4.6793-2.1742,0-3.2711-1.3216-3.2711-3.9353v-12.3836h-5.0084v12.7653c0,2.6039.66,4.6793,1.9801,6.2162,1.3686,1.5369,3.1545,2.3201,5.3677,2.3201,2.5624,0,4.5134-.9986,5.7946-2.9858l1.2521-2.1145,1.2521,2.1145c1.2812,1.9872,3.2225,2.9858,5.7946,2.9858,2.213,0,3.999-.7832,5.3677-2.3201,1.32-1.5369,1.9801-3.6024,1.9801-6.2162ZM121.3376,45.2394c-2.186,2.1721-4.8557,3.2591-8.009,3.2591s-5.8161-1.0869-7.9882-3.2591-3.2591-4.8349-3.2591-7.9882,1.0869-5.8161,3.2591-7.9882c2.1721-2.1721,4.8349-3.2591,7.9882-3.2591s5.823,1.0869,8.009,3.2591c2.1877,2.1721,3.2816,4.8349,3.2816,7.9882s-1.0939,5.8161-3.2816,7.9882ZM109.2167,41.4689c1.0939,1.1077,2.4651,1.6607,4.112,1.6607s3.025-.553,4.1328-1.6607,1.6607-2.5136,1.6607-4.2177-.553-3.11-1.6607-4.2177-2.4859-1.6607-4.1328-1.6607-3.0181.553-4.112,1.6607c-1.0921,1.1077-1.6399,2.5136-1.6399,4.2177s.5478,3.11,1.6399,4.2177ZM146.6474,45.2394c-2.1912,2.1721-4.8609,3.2591-8.009,3.2591-3.1551,0-5.8178-1.0869-7.9917-3.2591-2.1721-2.1721-3.2591-4.8349-3.2591-7.9882s1.0869-5.8161,3.2591-7.9882c2.1739-2.1721,4.8366-3.2591,7.9917-3.2591,3.1481,0,5.8178,1.0869,8.009,3.2591,2.1843,2.1721,3.2799,4.8349,3.2799,7.9882s-1.0956,5.8161-3.2799,7.9882ZM134.5264,41.4689c1.0887,1.1077,2.4616,1.6607,4.112,1.6607,1.6434,0,3.0233-.553,4.1258-1.6607,1.1095-1.1077,1.6642-2.5136,1.6642-4.2177s-.5547-3.11-1.6642-4.2177c-1.1025-1.1077-2.4824-1.6607-4.1258-1.6607-1.6503,0-3.0233.553-4.112,1.6607-1.0956,1.1077-1.6434,2.5136-1.6434,4.2177s.5478,3.11,1.6434,4.2177ZM164.5792,22.7657c-3.0094-.2271-4.5142.9795-4.5142,3.6214v.2132h4.5142v5.2821h-4.5142v16.0197h-5.4953v-16.0197h-3.0684v-5.2821h3.0684v-.2132c0-3.0094.8356-5.296,2.5136-6.8596,1.6746-1.5602,4.1744-2.2432,7.4959-2.0439v5.2821ZM170.2895,47.3907c-.7108.709-1.5637,1.0644-2.5552,1.0644-.9951,0-1.848-.3554-2.5587-1.0644-.7108-.709-1.0644-1.5619-1.0644-2.5552,0-.9951.3536-1.8462,1.0644-2.557.7108-.709,1.5637-1.0644,2.5587-1.0644.9916,0,1.8445.3554,2.5552,1.0644.7108.7108,1.0644,1.5619,1.0644,2.557,0,.9933-.3536,1.8462-1.0644,2.5552ZM185.5829,31.8824h-4.8123v8.8619c0,.7385.1838,1.2794.5547,1.6191.3675.3415.9084.5322,1.6191.5755.7073.0416,1.5879.0364,2.6385-.0208v4.9839c-3.7757.4265-6.4384.0711-7.9882-1.0644-1.5463-1.1372-2.3195-3.1672-2.3195-6.0934v-8.8619h-3.7063v-5.2821h3.7063v-4.3027l5.4953-1.6625v5.9651h4.8123v5.2821ZM193.4636,39.51c.7385,2.6697,2.7425,4.0045,6.0085,4.0045,2.1011,0,3.6925-.7108,4.7707-2.1305l4.4309,2.5552c-2.1011,3.0406-5.1972,4.5592-9.2883,4.5592-3.5191,0-6.3448-1.0644-8.477-3.1949-2.1288-2.1305-3.1932-4.8141-3.1932-8.0523,0-3.2088,1.0471-5.8854,3.1516-8.0315,2.1011-2.1427,4.7985-3.2157,8.0957-3.2157,3.1239,0,5.6999,1.08,7.7316,3.2383,2.0283,2.1583,3.0441,4.8279,3.0441,8.009,0,.7108-.0693,1.4631-.2115,2.2588h-16.0631ZM193.3804,35.2489h10.8624c-.312-1.4492-.9569-2.5275-1.9381-3.2383-.9777-.709-2.0941-1.0644-3.3423-1.0644-1.4804,0-2.7009.3762-3.6647,1.1285-.9673.7524-1.6053,1.8098-1.9173,3.1741ZM223.5441,48.4984c-3.2105,0-5.8871-1.0783-8.0333-3.2383-2.1427-2.1583-3.214-4.8279-3.214-8.009s1.0713-5.8507,3.214-8.009c2.1461-2.1583,4.8227-3.2383,8.0333-3.2383,2.0699,0,3.9594.4975,5.6652,1.4909,1.7023.9951,2.9956,2.3299,3.8762,4.0045l-4.7291,2.7702c-.4265-.8806-1.0713-1.5775-1.9381-2.0889-.8668-.5097-1.841-.7662-2.9193-.7662-1.6469,0-3.0094.5478-4.0877,1.6399-1.0817,1.0939-1.6191,2.4928-1.6191,4.1969,0,1.6763.5374,3.0614,1.6191,4.1536,1.0783,1.0939,2.4408,1.6399,4.0877,1.6399,1.1095,0,2.0941-.2479,2.9609-.7454.8668-.4958,1.5117-1.1857,1.9381-2.0664l4.7742,2.7269c-.9396,1.6763-2.2605,3.0181-3.9629,4.027-1.7058,1.0072-3.5954,1.5117-5.6652,1.5117ZM247.9109,26.0039c2.3299,0,4.2541.7818,5.7727,2.3438s2.2779,3.7202,2.2779,6.4748v13.0796h-5.4953v-12.3983c0-1.4198-.3814-2.505-1.1476-3.2591-.7697-.7524-1.7925-1.1285-3.0684-1.1285-1.4215,0-2.5552.4403-3.4082,1.321s-1.2794,2.2016-1.2794,3.9612v11.5038h-5.4953v-29.8222h5.4953v10.9057c1.3348-1.9866,3.4498-2.9817,6.3483-2.9817Z"
          fill="currentColor" />
          <defs>
              <linearGradient id="paint0_linear_89_11" x1="30.5" y1="0.0130005" x2="30.5" y2="65.013" gradientUnits="userSpaceOnUse">
                  <stop stop-color="#6364FF"/>
                  <stop offset="1" stop-color="#563ACC"/>
              </linearGradient>
          </defs>
  </symbol><use xlink:href="#logo-symbol-wordmark"/>
</svg>
