<svg xmlns="http://www.w3.org/2000/svg" xmlns:xlink="http://www.w3.org/1999/xlink" width="79"
	height="79" viewBox="0 0 79 75">
	<symbol id="logo-symbol-icon">
		<path
			d="M75.5,39.5c0-20.4-9.4-30.9-15.2-35.3c-1.9-1.4-4.5-0.6-5.6,1.5c-2,3.6-5.1,10.8-5.1,17.1l0,0c-3.4-0.2-6.9-0.2-10.1-0.2
	c-3.2,0-6.7,0-10.1,0.2l0,0c0-6.3-3.1-13.5-5.1-17.1c-1.1-2.1-3.7-2.9-5.6-1.5C12.8,8.6,3.5,19.1,3.5,39.5l0,0
	c-0.2,5.4,0.1,11,0.3,17c0.7,19.1,27,19.1,35.6,19.1h0c8.7,0,34.9,0,35.6-19.1C75.4,50.5,75.6,44.9,75.5,39.5L75.5,39.5z M14.2,52.8
	c-2.7,0-4.8-2.2-4.8-4.8s2.2-4.8,4.8-4.8s4.8,2.2,4.8,4.8S16.9,52.8,14.2,52.8z M55.5,51.5c0,2.9-0.7,5.2-2.2,6.9
	c-1.5,1.7-3.5,2.6-6,2.6c-2.9,0-5.1-1.1-6.5-3.3l-1.4-2.4l-1.4,2.4c-1.5,2.2-3.6,3.3-6.5,3.3c-2.5,0-4.5-0.9-6-2.6
	c-1.5-1.7-2.2-4-2.2-6.9h0V37.3h5.6v13.8c0,2.9,1.2,4.4,3.7,4.4c2.7,0,4.1-1.8,4.1-5.2v-7.6h5.6v7.6c0,3.5,1.4,5.2,4.1,5.2
	c2.4,0,3.7-1.5,3.7-4.4V37.3h5.6V51.5z M64.8,52.8c-2.7,0-4.8-2.2-4.8-4.8s2.2-4.8,4.8-4.8s4.8,2.2,4.8,4.8S67.4,52.8,64.8,52.8z"
			fill="currentColor" />
	</symbol>
	<use xlink:href="#logo-symbol-icon" />
</svg>
